<svg width="21" height="21" viewBox="0 0 21 21" fill="none" xmlns="http://www.w3.org/2000/svg">
<g clip-path="url(#clip0_63_34446)">
<path d="M16.5113 10.919C16.1168 10.919 15.7971 11.2388 15.7971 11.6333V18.776C15.7971 19.1705 15.4773 19.4903 15.0828 19.4903H2.22584C1.83134 19.4903 1.51155 19.1705 1.51155 18.776V4.49048C1.51155 4.09599 1.83134 3.77619 2.22584 3.77619H10.7972C11.1916 3.77619 11.5114 3.4564 11.5114 3.0619C11.5114 2.66741 11.1916 2.34766 10.7972 2.34766H2.22584C1.04238 2.34766 0.0830078 3.30703 0.0830078 4.49048V18.776C0.0830078 19.9595 1.04238 20.9188 2.22584 20.9188H15.0828C16.2663 20.9188 17.2256 19.9595 17.2256 18.776V11.6332C17.2256 11.2388 16.9058 10.919 16.5113 10.919Z" fill="#FFC132"/>
<path d="M19.2825 1.71992C18.7696 1.20698 18.074 0.918873 17.3486 0.918957C16.6229 0.916864 15.9265 1.20548 15.4151 1.72038L6.00662 11.1281C5.92857 11.2067 5.86968 11.3023 5.83448 11.4074L4.40594 15.693C4.28127 16.0673 4.48362 16.4718 4.85791 16.5964C4.93052 16.6206 5.00656 16.6329 5.08307 16.633C5.15974 16.6329 5.23596 16.6206 5.30878 16.5966L9.59444 15.1681C9.69969 15.1329 9.79533 15.0737 9.87372 14.9952L19.2822 5.58677C20.35 4.51903 20.3501 2.78778 19.2825 1.71992ZM18.2722 4.57746L8.98658 13.8631L6.21232 14.7895L7.13587 12.0188L16.425 2.7332C16.9357 2.22353 17.7629 2.22437 18.2726 2.73505C18.5161 2.979 18.6532 3.30926 18.6543 3.65391C18.6552 4.0004 18.5176 4.33288 18.2722 4.57746Z" fill="#FFC132"/>
</g>
<defs>
<clipPath id="clip0_63_34446">
<rect width="20" height="20" fill="white" transform="translate(0.0830078 0.918945)"/>
</clipPath>
</defs>
</svg>
