<svg width="23" height="23" viewBox="0 0 23 23" fill="none" xmlns="http://www.w3.org/2000/svg">
<path d="M14.0156 17.0703C14.4125 17.0703 14.7344 16.7485 14.7344 16.3516V9.16406C14.7344 8.76717 14.4125 8.44531 14.0156 8.44531C13.6187 8.44531 13.2969 8.76717 13.2969 9.16406V16.3516C13.2969 16.7485 13.6187 17.0703 14.0156 17.0703Z" fill="#FFC132"/>
<path d="M8.98438 17.0703C9.38127 17.0703 9.70312 16.7485 9.70312 16.3516V9.16406C9.70312 8.76717 9.38127 8.44531 8.98438 8.44531C8.58748 8.44531 8.26562 8.76717 8.26562 9.16406V16.3516C8.26562 16.7485 8.58748 17.0703 8.98438 17.0703Z" fill="#FFC132"/>
<path d="M14.375 3.05469C14.7719 3.05469 15.0938 2.73283 15.0938 2.33594C15.0938 1.93904 14.7719 1.61719 14.375 1.61719H8.625C8.22811 1.61719 7.90625 1.93904 7.90625 2.33594C7.90625 2.73283 8.22811 3.05469 8.625 3.05469H14.375Z" fill="#FFC132"/>
<path d="M3.59375 3.77344C3.19686 3.77344 2.875 4.09529 2.875 4.49219C2.875 4.88908 3.19686 5.21094 3.59375 5.21094H4.3125V18.4359C4.3125 20.0602 5.635 21.3828 7.25938 21.3828H15.7406C17.3649 21.3828 18.6875 20.0603 18.6875 18.4359V5.21094H19.4062C19.8031 5.21094 20.125 4.88908 20.125 4.49219C20.125 4.09529 19.8031 3.77344 19.4062 3.77344H17.9688H5.03125H3.59375ZM17.25 5.21094V18.4359C17.25 19.2697 16.5744 19.9453 15.7406 19.9453H7.25938C6.42563 19.9453 5.75 19.2697 5.75 18.4359V5.21094H17.25Z" fill="#FFC132"/>
</svg>
