<svg width="21" height="21" viewBox="0 0 21 21" fill="none" xmlns="http://www.w3.org/2000/svg">
<path d="M17.5809 2.78906H15.2709V2.46094C15.2709 2.28689 15.2018 2.11997 15.0787 1.9969C14.9557 1.87383 14.7887 1.80469 14.6147 1.80469C14.4406 1.80469 14.2737 1.87383 14.1506 1.9969C14.0276 2.11997 13.9584 2.28689 13.9584 2.46094V2.78906H7.04156V2.46094C7.04156 2.28689 6.97242 2.11997 6.84935 1.9969C6.72628 1.87383 6.55936 1.80469 6.38531 1.80469C6.21126 1.80469 6.04434 1.87383 5.92127 1.9969C5.7982 2.11997 5.72906 2.28689 5.72906 2.46094V2.78906H3.41906C2.68685 2.7908 1.98513 3.08243 1.46737 3.60019C0.949621 4.11794 0.657983 4.81966 0.65625 5.55188V17.0625C0.657983 17.7947 0.949621 18.4964 1.46737 19.0142C1.98513 19.5319 2.68685 19.8236 3.41906 19.8253H17.5809C18.3131 19.8236 19.0149 19.5319 19.5326 19.0142C20.0504 18.4964 20.342 17.7947 20.3438 17.0625V5.55188C20.342 4.81966 20.0504 4.11794 19.5326 3.60019C19.0149 3.08243 18.3131 2.7908 17.5809 2.78906ZM3.41906 4.10156H5.72906V4.42969C5.72906 4.60374 5.7982 4.77066 5.92127 4.89373C6.04434 5.0168 6.21126 5.08594 6.38531 5.08594C6.55936 5.08594 6.72628 5.0168 6.84935 4.89373C6.97242 4.77066 7.04156 4.60374 7.04156 4.42969V4.10156H13.9584V4.42969C13.9584 4.60374 14.0276 4.77066 14.1506 4.89373C14.2737 5.0168 14.4406 5.08594 14.6147 5.08594C14.7887 5.08594 14.9557 5.0168 15.0787 4.89373C15.2018 4.77066 15.2709 4.60374 15.2709 4.42969V4.10156H17.5809C17.9656 4.10156 18.3345 4.25436 18.6065 4.52635C18.8785 4.79834 19.0312 5.16723 19.0312 5.55188V7.10719H1.96875V5.55188C1.96875 5.16723 2.12155 4.79834 2.39354 4.52635C2.66552 4.25436 3.03442 4.10156 3.41906 4.10156ZM17.5809 18.5391H3.41906C3.22638 18.5391 3.03561 18.5007 2.85792 18.4262C2.68023 18.3517 2.51917 18.2425 2.38414 18.105C2.24912 17.9676 2.14284 17.8046 2.07152 17.6256C2.0002 17.4466 1.96526 17.2552 1.96875 17.0625V8.41969H19.0312V17.0625C19.0347 17.2552 18.9998 17.4466 18.9285 17.6256C18.8572 17.8046 18.7509 17.9676 18.6159 18.105C18.4808 18.2425 18.3198 18.3517 18.1421 18.4262C17.9644 18.5007 17.7736 18.5391 17.5809 18.5391Z" fill="#7C7C7C"/>
</svg>