<svg width="62" height="30" viewBox="0 0 62 30" fill="none" xmlns="http://www.w3.org/2000/svg">
<path d="M0.233964 6.42712H1.15108V9.69104C1.15108 11.8557 2.23536 13 4.28628 13C5.22293 12.9943 6.13509 12.7059 6.89872 12.1739C6.9449 12.1434 6.9782 12.0975 6.9924 12.0447C7.00661 11.9919 7.00077 11.9359 6.97595 11.887L6.27406 10.5026C6.2597 10.4744 6.23939 10.4495 6.21466 10.4294C6.18992 10.4093 6.16124 10.3946 6.13035 10.386C6.09898 10.3775 6.06616 10.3754 6.03393 10.38C6.0017 10.3846 5.97081 10.3956 5.94322 10.4126C5.49625 10.7111 4.97525 10.8856 4.43548 10.9176C3.74576 10.9176 3.38082 10.4824 3.38082 9.65943V6.42802H5.97589C6.0367 6.42802 6.09512 6.4043 6.13811 6.36212C6.18111 6.31994 6.20506 6.26276 6.20506 6.20311V4.6283C6.20506 4.56861 6.1811 4.51131 6.13811 4.46906C6.09513 4.42681 6.03675 4.40295 5.97589 4.40283H3.38082V2.22491C3.38082 2.16526 3.35664 2.10807 3.31365 2.06589C3.27065 2.02371 3.21223 2 3.15142 2H1.37659C1.31574 2 1.25744 2.02361 1.21437 2.06578C1.1713 2.10795 1.14709 2.16522 1.14697 2.22491V4.40283H0.229622C0.168726 4.40295 0.110462 4.42682 0.0674016 4.46906C0.0243415 4.5113 0.000123647 4.56857 0 4.6283V6.20311C0.000180694 6.23294 0.00638687 6.26239 0.0182784 6.28984C0.0301699 6.3173 0.0474658 6.34218 0.0692294 6.36302C0.0909931 6.38386 0.116814 6.40032 0.145085 6.41132C0.173355 6.42231 0.203557 6.42767 0.233964 6.42712Z" fill="#B8B8B8"/>
<path d="M12.2024 12.9957C13.4228 13.0479 14.6174 12.6201 15.5489 11.7972C15.5904 11.76 15.6173 11.7081 15.6243 11.6515C15.6313 11.5949 15.6179 11.5375 15.5867 11.4905L14.7412 10.2291C14.7238 10.2035 14.7016 10.1818 14.6759 10.1653C14.6503 10.1487 14.6216 10.1377 14.5917 10.133C14.5619 10.1275 14.5311 10.1289 14.5018 10.137C14.4725 10.1451 14.4453 10.1597 14.422 10.1799C13.821 10.6816 13.0785 10.9641 12.3085 10.9842C11.8394 11.0171 11.3746 10.8729 10.999 10.5782C10.6234 10.2835 10.3622 9.8578 10.2632 9.37898H15.7465C15.8018 9.37896 15.8549 9.35732 15.8956 9.31842C15.9363 9.27953 15.9614 9.22621 15.9661 9.16891C15.9846 8.9593 16 8.7244 16 8.48854C15.9923 5.84569 14.3873 4 12.0971 4C9.68342 4 8 5.84945 8 8.49792C8 11.1464 9.72659 12.9957 12.2024 12.9957ZM10.2687 7.57313C10.3359 7.13263 10.5556 6.7331 10.8864 6.44982C11.2172 6.16654 11.6361 6.0192 12.0641 6.03562C12.9488 6.03562 13.5498 6.57901 13.7718 7.57313H10.2687Z" fill="#B8B8B8"/>
<path d="M21.6398 12.9954C22.2605 13.0135 22.8775 12.8999 23.448 12.6623C24.0186 12.4248 24.5289 12.0692 24.9429 11.6203C24.9803 11.578 25.0005 11.5239 25 11.4682C24.9995 11.4124 24.978 11.3588 24.9398 11.3171L23.8145 10.0985C23.7715 10.0526 23.7115 10.0251 23.6477 10.022C23.5847 10.0229 23.524 10.0448 23.4756 10.0839C22.9712 10.5681 22.2959 10.8484 21.5865 10.8681C20.2938 10.8681 19.3545 9.87261 19.3545 8.50029C19.3545 7.12796 20.2938 6.13201 21.5865 6.13201C21.9321 6.13382 22.2737 6.20337 22.5908 6.3366C22.9079 6.46983 23.194 6.66388 23.4318 6.90713C23.4783 6.9478 23.5386 6.9702 23.6012 6.96995C23.6642 6.96748 23.7238 6.94124 23.7671 6.89683L24.936 5.68666C24.9754 5.64546 24.998 5.59177 24.9995 5.53562C25.001 5.47946 24.9814 5.42473 24.9443 5.3816C24.5327 4.92947 24.0227 4.57144 23.4513 4.33334C22.8799 4.09523 22.2613 3.98298 21.6398 4.00459C21.0236 3.97696 20.4081 4.07427 19.8328 4.29043C19.2575 4.50659 18.735 4.83685 18.2988 5.25996C17.8626 5.68307 17.5223 6.18979 17.2995 6.74773C17.0767 7.30568 16.9762 7.90259 17.0047 8.50029C16.9763 9.09794 17.0766 9.69472 17.2995 10.2526C17.5223 10.8105 17.8628 11.3172 18.299 11.7403C18.7352 12.1633 19.2576 12.4934 19.8328 12.7096C20.408 12.9257 21.0236 13.023 21.6398 12.9954Z" fill="#B8B8B8"/>
<path d="M31.761 12.7625C31.761 12.8251 31.7852 12.8851 31.8283 12.9294C31.8714 12.9737 31.9296 12.9986 31.9905 12.9986H33.7681C33.829 12.9986 33.8875 12.9737 33.9305 12.9294C33.9736 12.8851 33.9978 12.8251 33.9978 12.7625V7.52458C34.0147 7.0476 33.9347 6.57234 33.7628 6.12899C33.591 5.68564 33.331 5.28403 32.9996 4.94984C32.6683 4.61565 32.2728 4.35615 31.8384 4.18806C31.404 4.01997 30.9401 3.94696 30.4767 3.97361C29.6565 3.94673 28.8567 4.23924 28.2372 4.79269V0.236558C28.2371 0.173854 28.2128 0.113742 28.1697 0.069403C28.1266 0.0250643 28.068 0.000127319 28.0071 0H26.2299C26.1689 0.000127319 26.1106 0.0250643 26.0675 0.069403C26.0244 0.113742 26.0001 0.173854 26 0.236558V12.7639C26.0001 12.8266 26.0244 12.8867 26.0675 12.9309C26.1106 12.9752 26.169 13 26.2299 13H28.0071C28.068 13 28.1266 12.9752 28.1697 12.9309C28.2128 12.8867 28.2371 12.8266 28.2372 12.7639V8.14426C28.2171 7.88476 28.2511 7.62386 28.3372 7.37907C28.4233 7.13427 28.5594 6.9112 28.7364 6.72503C28.9133 6.53887 29.127 6.39392 29.363 6.29979C29.599 6.20566 29.852 6.16454 30.1047 6.17933C31.1725 6.17933 31.761 6.87074 31.761 8.12685V12.7625Z" fill="#B8B8B8"/>
<path d="M8.76534 18.2101H6.96244C6.90024 18.2101 6.84058 18.234 6.79659 18.2765C6.75261 18.3191 6.72778 18.3768 6.72778 18.437V18.8292C6.07628 18.2749 5.23265 17.9792 4.36552 18.0011C1.87706 18.0011 0 19.9077 0 22.4361C0 24.9645 1.87706 26.8697 4.36552 26.8697C5.23141 26.8928 6.07455 26.6001 6.72778 26.0496V29.7735C6.72791 29.8336 6.75285 29.8913 6.79683 29.9337C6.8408 29.9762 6.90032 30 6.96244 30H8.76534C8.82746 30 8.88698 29.9762 8.93095 29.9337C8.97493 29.8913 8.99987 29.8336 9 29.7735V18.437C9 18.3768 8.97518 18.3191 8.93119 18.2765C8.8872 18.234 8.82755 18.2101 8.76534 18.2101ZM6.83975 22.4361C6.83975 23.8111 5.91152 24.7718 4.58106 24.7718C3.2506 24.7718 2.32284 23.8111 2.32284 22.4361C2.32284 21.0612 3.25155 20.0995 4.58106 20.0995C5.91056 20.0995 6.83975 21.0603 6.83975 22.4361Z" fill="#B8B8B8"/>
<path d="M18.7693 18H16.9867C16.9255 18.0001 16.8669 18.0251 16.8237 18.0693C16.7805 18.1136 16.7562 18.1734 16.7562 18.2359V22.8601C16.7562 24.1603 16.1656 24.8196 15.0005 24.8196C13.8353 24.8196 13.2438 24.1603 13.2438 22.8601V18.2359C13.2438 18.1733 13.2194 18.1133 13.1761 18.0691C13.1328 18.0249 13.0741 18 13.0129 18H11.2303C11.2 18 11.1701 18.0061 11.1421 18.0179C11.1141 18.0298 11.0887 18.0472 11.0673 18.0691C11.0459 18.091 11.029 18.1171 11.0174 18.1457C11.0059 18.1743 10.9999 18.2049 11 18.2359V23.0249C11 25.9588 13.1544 27 15.0005 27C16.8465 27 19 25.9588 19 23.0249V18.2359C19.0001 18.2049 18.9941 18.1742 18.9826 18.1456C18.971 18.1169 18.9542 18.0909 18.9327 18.069C18.9113 18.0471 18.8857 18.0297 18.8577 18.0178C18.8296 18.006 18.7996 17.9999 18.7693 18Z" fill="#B8B8B8"/>
<path d="M29.7653 18.2131H27.9629C27.932 18.213 27.9015 18.219 27.873 18.2305C27.8446 18.2421 27.8188 18.259 27.797 18.2804C27.7752 18.3018 27.7579 18.3272 27.7462 18.3552C27.7344 18.3832 27.7284 18.4131 27.7284 18.4434V18.8412C27.0768 18.2791 26.233 17.9791 25.3659 18.0011C22.8769 18.0011 21 19.9355 21 22.5007C21 25.0659 22.8769 26.9987 25.3659 26.9987C26.2317 27.022 27.0751 26.7251 27.7284 26.1667V26.5569C27.7284 26.5872 27.7344 26.6171 27.7462 26.645C27.7579 26.6729 27.7752 26.6982 27.797 26.7195C27.8188 26.7409 27.8448 26.7578 27.8733 26.7694C27.9017 26.7809 27.9321 26.7868 27.9629 26.7868H29.7653C29.8275 26.7868 29.8872 26.7625 29.9312 26.7194C29.9752 26.6763 29.9999 26.6179 30 26.5569V18.4425C29.9997 18.3816 29.9749 18.3232 29.931 18.2802C29.887 18.2372 29.8274 18.2131 29.7653 18.2131ZM27.8402 22.5007C27.8402 23.8956 26.9114 24.8703 25.5819 24.8703C24.2523 24.8703 23.3231 23.8956 23.3231 22.5007C23.3231 21.1057 24.2514 20.13 25.5819 20.13C26.9124 20.13 27.8402 21.1048 27.8402 22.5007Z" fill="#B8B8B8"/>
<path d="M37.8536 18.2534C37.3862 18.0733 36.8883 17.988 36.3884 18.0022C35.6027 17.9724 34.835 18.2451 34.2401 18.7654V18.4551C34.2401 18.4241 34.2341 18.3934 34.2225 18.3648C34.2108 18.3361 34.1936 18.3101 34.1719 18.2882C34.1503 18.2663 34.1247 18.2489 34.0964 18.2371C34.0681 18.2253 34.0378 18.2192 34.0072 18.2193H32.2329C32.1711 18.2193 32.1118 18.2441 32.0681 18.2883C32.0244 18.3326 32 18.3925 32 18.4551V26.7646C32.0001 26.8271 32.0247 26.8869 32.0684 26.931C32.112 26.9752 32.1711 27 32.2329 27H34.0237C34.0854 27 34.1447 26.9752 34.1884 26.931C34.2321 26.8869 34.2566 26.8271 34.2567 26.7646V22.1939C34.2567 20.9642 34.9158 20.2011 35.9773 20.2011C36.4106 20.1998 36.8389 20.2942 37.2324 20.4777C37.2637 20.4944 37.2984 20.5036 37.3337 20.5045C37.369 20.5055 37.4041 20.498 37.4361 20.483C37.4683 20.4681 37.4968 20.4461 37.5193 20.4185C37.5418 20.3908 37.5578 20.3584 37.5661 20.3236L37.9931 18.5286C38.0067 18.4734 38 18.4151 37.9743 18.3644C37.9487 18.3138 37.9059 18.2744 37.8536 18.2534Z" fill="#B8B8B8"/>
<path d="M44.2767 24.5025C44.2625 24.4743 44.2424 24.4494 44.2178 24.4293C44.1931 24.4092 44.1643 24.3945 44.1334 24.3859C44.1021 24.3768 44.0691 24.3744 44.0367 24.379C44.0044 24.3836 43.9736 24.395 43.9462 24.4125C43.4988 24.7107 42.9777 24.8851 42.4377 24.9174C41.7476 24.9174 41.3825 24.4823 41.3825 23.659V20.4284H43.9784C44.0394 20.4284 44.0979 20.4047 44.141 20.3624C44.1841 20.3202 44.2084 20.2629 44.2084 20.2031V18.6288C44.2084 18.5691 44.1841 18.5118 44.141 18.4695C44.0979 18.4273 44.0394 18.4035 43.9784 18.4035H41.3825V16.2254C41.3825 16.1657 41.3582 16.1084 41.3151 16.0661C41.272 16.0238 41.2135 16 41.1525 16H39.3777C39.3168 16.0001 39.2585 16.024 39.2154 16.0662C39.1724 16.1085 39.1481 16.1657 39.148 16.2254V18.4035H38.23C38.169 18.4035 38.1105 18.4273 38.0674 18.4695C38.0243 18.5118 38 18.5691 38 18.6288V20.2031C38 20.2629 38.0243 20.3202 38.0674 20.3624C38.1105 20.4047 38.169 20.4284 38.23 20.4284H39.148V23.6919C39.148 25.8558 40.2331 27 42.2845 27C43.2217 26.9945 44.1343 26.7061 44.8983 26.174C44.9446 26.1436 44.9782 26.0977 44.9925 26.0449C45.0067 25.9921 45.0006 25.936 44.9756 25.8871L44.2767 24.5025Z" fill="#B8B8B8"/>
<path d="M50.0959 18C47.683 18 46 19.85 46 22.4986C46 25.1472 47.7283 26.9957 50.2034 26.9957C51.4234 27.048 52.6176 26.6202 53.5486 25.7971C53.5903 25.76 53.6173 25.708 53.6244 25.6514C53.6315 25.5947 53.618 25.5374 53.5868 25.4904L52.7411 24.2294C52.7238 24.2037 52.7017 24.182 52.6761 24.1654C52.6505 24.1489 52.6219 24.1379 52.5921 24.1333C52.5622 24.1288 52.5317 24.1306 52.5025 24.1386C52.4732 24.1467 52.4459 24.1609 52.422 24.1802C51.8211 24.6817 51.079 24.9642 50.3093 24.9844C49.8403 25.0173 49.3755 24.8731 49.0001 24.5783C48.6247 24.2834 48.3638 23.8577 48.265 23.3788H53.747C53.8024 23.3788 53.8559 23.3571 53.8967 23.318C53.9375 23.2789 53.9626 23.2253 53.9673 23.1678C53.9844 22.9591 54 22.7236 54 22.4877C53.9901 19.8457 52.3856 18 50.0959 18ZM48.2676 21.5733C48.3349 21.1327 48.5546 20.733 48.8854 20.4497C49.2162 20.1664 49.635 20.0191 50.063 20.0356C50.9479 20.0356 51.5485 20.5787 51.7704 21.5733H48.2676Z" fill="#B8B8B8"/>
<path d="M61.8537 18.2534C61.3865 18.0733 60.889 17.988 60.3893 18.0022C59.6034 17.9725 58.8356 18.2451 58.2403 18.7654V18.4551C58.2403 18.3925 58.2157 18.3326 58.172 18.2883C58.1283 18.2441 58.069 18.2193 58.0072 18.2193H56.2331C56.1713 18.2193 56.1118 18.2441 56.0681 18.2883C56.0244 18.3326 56 18.3925 56 18.4551V26.7646C56.0001 26.8271 56.0247 26.8869 56.0684 26.931C56.112 26.9752 56.1714 27 56.2331 27H58.0239C58.0856 27 58.1446 26.9752 58.1882 26.931C58.2318 26.8869 58.2563 26.8271 58.2563 26.7646V22.1939C58.2563 20.9642 58.9158 20.201 59.9783 20.201C60.411 20.1996 60.8388 20.294 61.2316 20.4777C61.263 20.4944 61.2978 20.5036 61.3333 20.5045C61.3687 20.5054 61.4039 20.498 61.4362 20.483C61.4684 20.4681 61.4968 20.4461 61.5193 20.4185C61.5419 20.3908 61.5579 20.3584 61.5661 20.3236L61.9932 18.5286C62.0067 18.4734 62 18.4151 61.9744 18.3645C61.9487 18.314 61.9059 18.2745 61.8537 18.2534Z" fill="#B8B8B8"/>
</svg>
