<svg width="43" height="34" viewBox="0 0 43 34" fill="none" xmlns="http://www.w3.org/2000/svg">
<path d="M36 16.9962C36.0037 19.4111 35.4619 21.7989 34.4108 24L27 16.9962L34.4034 10C35.4612 12.1966 36.0057 14.5828 36 16.9962Z" fill="#FBAE17"/>
<path d="M26 1.50242L1.62548 24C0.546073 21.8051 -0.00831857 19.4213 9.43341e-05 17.0109C-0.000515815 14.7768 0.475811 12.5646 1.40184 10.5005C2.32788 8.43632 3.68546 6.56076 5.39707 4.98104C7.10867 3.40131 9.14073 2.1483 11.3771 1.29366C13.6136 0.439016 16.0105 -0.00062881 18.431 4.70873e-06C21.0411 -0.00179178 23.6215 0.510485 26 1.50242Z" fill="#F05B40"/>
<path d="M35 10.516C33.1891 6.7332 29.9667 3.70398 25.9412 2L2 24.4903C3.81394 28.2718 7.03871 31.2989 11.0656 33L35 10.516Z" fill="#F6921E"/>
<path d="M28 34H18.6748C16.0271 34.0042 13.4095 33.5189 11 32.5774L18.6748 26L28 34Z" fill="#FBAE17"/>
<path d="M41.2293 34H27.4513L12.531 19.9239C12.2773 19.6842 12.1047 19.3792 12.0348 19.047C11.9649 18.7149 12.0009 18.3706 12.1383 18.0578C12.2756 17.7449 12.5082 17.4774 12.8066 17.2891C13.1049 17.1009 13.4558 17.0003 13.8147 17H27.4741L34.8852 23.9915L42.4836 31.1527C42.7306 31.3864 42.8986 31.6839 42.9664 32.0076C43.0342 32.3314 42.9988 32.6668 42.8646 32.9715C42.7303 33.2763 42.5033 33.5367 42.2122 33.7197C41.9212 33.9028 41.5791 34.0003 41.2293 34Z" fill="#FFC132"/>
</svg>
