<svg width="20" height="21" viewBox="0 0 20 21" fill="none" xmlns="http://www.w3.org/2000/svg">
<g clip-path="url(#clip0_27_3493)">
<path d="M9.85724 10.1221C11.1808 10.1221 12.3267 9.64735 13.2633 8.71077C14.1996 7.77434 14.6744 6.62856 14.6744 5.30486C14.6744 3.98162 14.1997 2.83569 13.2632 1.89895C12.3266 0.962676 11.1806 0.487976 9.85724 0.487976C8.53354 0.487976 7.38776 0.962676 6.45132 1.89911C5.51489 2.83554 5.04004 3.98147 5.04004 5.30486C5.04004 6.62856 5.51489 7.77449 6.45132 8.71092C7.38806 9.6472 8.534 10.1221 9.85724 10.1221ZM7.28018 2.72781C7.99872 2.00927 8.84161 1.66 9.85724 1.66C10.8727 1.66 11.7158 2.00927 12.4344 2.72781C13.153 3.4465 13.5024 4.28954 13.5024 5.30486C13.5024 6.32048 13.153 7.16338 12.4344 7.88207C11.7158 8.60075 10.8727 8.95003 9.85724 8.95003C8.84192 8.95003 7.99902 8.6006 7.28018 7.88207C6.56149 7.16353 6.21207 6.32048 6.21207 5.30486C6.21207 4.28954 6.56149 3.4465 7.28018 2.72781Z" fill="#7C7C7C"/>
<path d="M18.2863 15.867C18.2593 15.4773 18.2047 15.0521 18.1242 14.6032C18.0431 14.151 17.9385 13.7234 17.8134 13.3326C17.684 12.9287 17.5084 12.5299 17.291 12.1476C17.0656 11.7509 16.8007 11.4055 16.5034 11.1212C16.1926 10.8238 15.8121 10.5847 15.372 10.4103C14.9335 10.2368 14.4475 10.1489 13.9276 10.1489C13.7234 10.1489 13.526 10.2327 13.1447 10.4809C12.91 10.634 12.6355 10.811 12.3291 11.0067C12.0671 11.1737 11.7122 11.3301 11.2738 11.4717C10.8461 11.6101 10.4118 11.6803 9.98306 11.6803C9.5546 11.6803 9.12033 11.6101 8.69232 11.4717C8.25439 11.3302 7.89932 11.1738 7.63779 11.0069C7.33429 10.813 7.05963 10.636 6.82144 10.4808C6.44043 10.2325 6.24298 10.1487 6.03882 10.1487C5.5188 10.1487 5.03296 10.2368 4.59457 10.4104C4.15482 10.5845 3.77411 10.8236 3.46298 11.1213C3.16574 11.4058 2.90085 11.7511 2.67563 12.1476C2.4585 12.5299 2.28271 12.9286 2.15332 13.3328C2.02835 13.7236 1.92383 14.151 1.84265 14.6032C1.76208 15.0515 1.70761 15.4768 1.6806 15.8674C1.65405 16.2493 1.64062 16.6468 1.64062 17.0484C1.64062 18.0925 1.9725 18.9376 2.62695 19.561C3.27332 20.176 4.12842 20.4879 5.16861 20.4879H14.7987C15.8386 20.4879 16.6937 20.176 17.3402 19.561C17.9948 18.9381 18.3267 18.0926 18.3267 17.0483C18.3266 16.6453 18.313 16.2478 18.2863 15.867ZM16.5321 18.7118C16.105 19.1183 15.538 19.3159 14.7986 19.3159H5.16861C4.42902 19.3159 3.862 19.1183 3.43506 18.712C3.0162 18.3132 2.81265 17.769 2.81265 17.0484C2.81265 16.6737 2.82501 16.3037 2.84973 15.9484C2.87384 15.5999 2.92313 15.2171 2.99622 14.8103C3.06839 14.4085 3.16025 14.0315 3.2695 13.6901C3.37433 13.3628 3.5173 13.0388 3.69461 12.7266C3.86383 12.429 4.05853 12.1737 4.27338 11.968C4.47433 11.7756 4.72763 11.6182 5.02609 11.5001C5.30212 11.3908 5.61234 11.331 5.9491 11.322C5.99014 11.3438 6.06323 11.3855 6.18164 11.4627C6.42258 11.6197 6.70029 11.7988 7.00729 11.9949C7.35336 12.2155 7.79922 12.4148 8.33191 12.5868C8.8765 12.7629 9.43192 12.8523 9.98322 12.8523C10.5345 12.8523 11.0901 12.7629 11.6344 12.5869C12.1675 12.4147 12.6132 12.2155 12.9597 11.9946C13.2739 11.7938 13.5439 11.6198 13.7848 11.4627C13.9032 11.3856 13.9763 11.3438 14.0173 11.322C14.3542 11.331 14.6645 11.3908 14.9406 11.5001C15.239 11.6182 15.4922 11.7758 15.6932 11.968C15.9081 12.1736 16.1028 12.4289 16.272 12.7267C16.4494 13.0388 16.5926 13.363 16.6972 13.69C16.8066 14.0318 16.8987 14.4087 16.9707 14.8101C17.0436 15.2177 17.093 15.6007 17.1172 15.9486V15.9489C17.142 16.3028 17.1545 16.6726 17.1547 17.0484C17.1545 17.7691 16.951 18.3132 16.5321 18.7118Z" fill="#7C7C7C"/>
</g>
<defs>
<clipPath id="clip0_27_3493">
<rect width="20" height="20" fill="white" transform="translate(0 0.487976)"/>
</clipPath>
</defs>
</svg>
