<svg width="19" height="19" viewBox="0 0 19 19" fill="none" xmlns="http://www.w3.org/2000/svg">
<path d="M9.5 0C4.2496 0 0 4.24888 0 9.5C0 14.7504 4.24888 19 9.5 19C14.7504 19 19 14.7511 19 9.5C19 4.2496 14.7511 0 9.5 0ZM9.5 17.5156C5.06992 17.5156 1.48438 13.9305 1.48438 9.5C1.48438 5.06992 5.06949 1.48438 9.5 1.48438C13.9301 1.48438 17.5156 5.06949 17.5156 9.5C17.5156 13.9301 13.9305 17.5156 9.5 17.5156ZM11.7018 13.8789C11.7018 14.2888 11.3695 14.6211 10.9596 14.6211H8.04041C7.63047 14.6211 7.29823 14.2888 7.29823 13.8789C7.29823 13.469 7.63047 13.1367 8.04041 13.1367H8.75781V8.7826H8.04041C7.63047 8.7826 7.29823 8.45036 7.29823 8.04041C7.29823 7.63047 7.63047 7.29823 8.04041 7.29823H9.5C9.90994 7.29823 10.2422 7.63047 10.2422 8.04041V13.1367H10.9596C11.3695 13.1367 11.7018 13.469 11.7018 13.8789ZM8.57227 4.58924C8.57227 4.07681 8.98757 3.66151 9.5 3.66151C10.0124 3.66151 10.4277 4.07681 10.4277 4.58924C10.4277 5.10152 10.0124 5.51698 9.5 5.51698C8.98757 5.51698 8.57227 5.10152 8.57227 4.58924Z" fill="#636363"/>
</svg>
